<?xml version="1.0" encoding="utf-8"?>
<!-- Generator: Adobe Illustrator 19.0.0, SVG Export Plug-In . SVG Version: 6.00 Build 0)  -->
<svg version="1.1" id="Layer_1" xmlns="http://www.w3.org/2000/svg" xmlns:xlink="http://www.w3.org/1999/xlink" x="0px" y="0px"
	 viewBox="-294 386 22 21" style="enable-background:new -294 386 22 21;" xml:space="preserve">
<style type="text/css">
	.st0{fill:#4A555E;}
</style>
<path class="st0" d="M-292.3,406.2c0.5,0.5,1.2,0.8,1.9,0.8h15.5c0.7,0,1.4-0.3,1.9-0.8c0.5-0.5,0.8-1.2,0.8-1.9v-15.4
	c0-0.7-0.3-1.4-0.8-1.9c-0.5-0.5-1.2-0.8-1.9-0.8h-15.5c-0.7,0-1.4,0.3-1.9,0.8c-0.5,0.5-0.8,1.2-0.8,1.9v15.4
	C-293.1,405-292.8,405.7-292.3,406.2z M-290.7,395h1.9c-0.2,0.6-0.3,1.2-0.3,1.8c0,1.7,0.6,3.2,1.9,4.4c1.3,1.2,2.8,1.8,4.6,1.8
	c1.2,0,2.3-0.3,3.3-0.9c1-0.6,1.8-1.3,2.4-2.3c0.6-1,0.9-2,0.9-3.2c0-0.6-0.1-1.2-0.3-1.8h1.8v8.8c0,0.2-0.1,0.4-0.2,0.6
	c-0.2,0.2-0.4,0.2-0.6,0.2h-14.5c-0.2,0-0.4-0.1-0.6-0.2c-0.2-0.1-0.2-0.3-0.2-0.6L-290.7,395L-290.7,395z M-282.6,392.5
	c1.2,0,2.2,0.4,3,1.2c0.8,0.8,1.2,1.7,1.2,2.9c0,1.1-0.4,2.1-1.2,2.9c-0.8,0.8-1.8,1.2-3,1.2c-1.1,0-2.1-0.4-2.9-1.2
	c-0.8-0.8-1.2-1.7-1.2-2.9c0-1.1,0.4-2.1,1.2-2.9C-284.8,392.9-283.8,392.5-282.6,392.5L-282.6,392.5z M-278.8,389.5
	c0-0.3,0.1-0.5,0.3-0.7c0.2-0.2,0.4-0.3,0.7-0.3h2.4c0.2,0,0.5,0.1,0.7,0.3c0.2,0.2,0.3,0.4,0.3,0.7v2.2c0,0.3-0.1,0.5-0.3,0.7
	c-0.2,0.2-0.4,0.3-0.7,0.3h-2.4c-0.3,0-0.5-0.1-0.7-0.3c-0.2-0.2-0.3-0.4-0.3-0.7L-278.8,389.5L-278.8,389.5z"/>
</svg>
